<?xml version="1.0" standalone="no"?>
<!DOCTYPE svg PUBLIC "-//W3C//DTD SVG 20010904//EN"
 "http://www.w3.org/TR/2001/REC-SVG-20010904/DTD/svg10.dtd">
<svg version="1.0" xmlns="http://www.w3.org/2000/svg"
 width="400.000000pt" height="400.000000pt" viewBox="0 0 400.000000 400.000000"
 preserveAspectRatio="xMidYMid meet">
<metadata>
Created by potrace 1.11, written by Peter Selinger 2001-2013
</metadata>
<g transform="translate(0.000000,400.000000) scale(0.100000,-0.100000)"
fill="#000000" stroke="none">
<path d="M1948 3335 c-2 -1 -37 -5 -78 -8 -291 -22 -588 -163 -810 -386 -58
-58 -129 -141 -158 -184 -210 -313 -282 -678 -207 -1039 85 -400 358 -747 729
-926 82 -39 225 -89 282 -98 21 -3 42 -8 46 -10 17 -11 143 -19 273 -18 134 0
204 9 325 41 355 94 658 336 836 668 64 118 123 299 141 432 10 75 10 312 -1
383 -64 430 -334 804 -722 1000 -112 57 -225 98 -324 116 -14 2 -34 6 -46 9
-50 11 -278 27 -286 20z"/>
</g>
</svg>
